<svg width="301" height="300" viewBox="0 0 301 300" fill="none" xmlns="http://www.w3.org/2000/svg">
<path d="M0.62793 64C0.62793 41.5979 0.62793 30.3968 4.98767 21.8404C8.8226 14.3139 14.9418 8.19467 22.4683 4.35974C31.0248 0 42.2258 0 64.6279 0H236.628C259.03 0 270.231 0 278.788 4.35974C286.314 8.19467 292.433 14.3139 296.268 21.8404C300.628 30.3968 300.628 41.5979 300.628 64V100H0.62793V64Z" fill="#1D4ED8"/>
<rect x="0.62793" y="100" width="300" height="100" rx="1" fill="#3B82F6"/>
<path d="M0.62793 200H300.628V236C300.628 258.402 300.628 269.603 296.268 278.16C292.433 285.686 286.314 291.805 278.788 295.64C270.231 300 259.03 300 236.628 300H64.6279C42.2258 300 31.0248 300 22.4683 295.64C14.9418 291.805 8.8226 285.686 4.98767 278.16C0.62793 269.603 0.62793 258.402 0.62793 236V200Z" fill="#93C5FD"/>
</svg>
