<svg width="301" height="300" viewBox="0 0 301 300" fill="none" xmlns="http://www.w3.org/2000/svg">
<rect x="0.62793" width="300" height="300" rx="40" fill="#93C5FD"/>
<path d="M0.62793 64C0.62793 41.5979 0.62793 30.3968 4.98767 21.8404C8.8226 14.3139 14.9418 8.19467 22.4683 4.35974C31.0248 0 42.2258 0 64.6279 0H90.6279V300H64.6279C42.2258 300 31.0248 300 22.4683 295.64C14.9418 291.805 8.8226 285.686 4.98767 278.16C0.62793 269.603 0.62793 258.402 0.62793 236V64Z" fill="#3B82F6"/>
<path d="M0.62793 60C0.62793 41.3623 0.62793 32.0435 3.67275 24.6927C7.73251 14.8915 15.5195 7.10458 25.3206 3.04482C32.6714 0 41.9903 0 60.6279 0H240.628C259.266 0 268.584 0 275.935 3.04482C285.736 7.10458 293.523 14.8915 297.583 24.6927C300.628 32.0435 300.628 41.3623 300.628 60H0.62793Z" fill="#1D4ED8"/>
</svg>
