<svg width="300" height="300" viewBox="0 0 300 300" fill="none" xmlns="http://www.w3.org/2000/svg">
<rect width="300" height="300" rx="40" fill="#93C5FD"/>
<path d="M0 64C0 41.5979 0 30.3968 4.35974 21.8404C8.19467 14.3139 14.3139 8.19467 21.8404 4.35974C30.3968 0 41.5979 0 64 0H90V300H64C41.5979 300 30.3968 300 21.8404 295.64C14.3139 291.805 8.19467 285.686 4.35974 278.16C0 269.603 0 258.402 0 236V64Z" fill="#3B82F6"/>
<path d="M0 60C0 41.3623 0 32.0435 3.04482 24.6927C7.10458 14.8915 14.8915 7.10458 24.6927 3.04482C32.0435 0 41.3623 0 60 0H240C258.638 0 267.956 0 275.307 3.04482C285.108 7.10458 292.895 14.8915 296.955 24.6927C300 32.0435 300 41.3623 300 60V60H0V60Z" fill="#1D4ED8"/>
</svg>
