<svg width="260" height="260" viewBox="0 0 260 260" xmlns="http://www.w3.org/2000/svg"><title>icon</title><g fill-rule="nonzero" fill="none"><path fill="#14151A" d="M0 0h260v260H0z"/><path d="M130.7 26.7c57.438 0 104 46.562 104 104s-46.562 104-104 104-104-46.562-104-104 46.562-104 104-104zm67.687 177.747H63.013C80.833 220.811 104.6 230.8 130.7 230.8c26.1 0 49.867-9.99 67.687-26.353zM130.7 65.674L63.264 200.545h134.87L130.7 65.674zm-73.747-2.66C40.589 80.832 30.6 104.6 30.6 130.7c0 26.1 9.99 49.867 26.353 67.687V63.013zm147.494 0v135.373C220.811 180.567 230.8 156.8 230.8 130.7c0-26.1-9.99-49.867-26.353-67.687zm-75.697-2.161H60.853v135.794L128.75 60.853zm71.795 0H132.65l67.896 135.792V60.853zM130.7 30.6c-26.1 0-49.867 9.99-67.687 26.353h135.374C180.567 40.589 156.8 30.6 130.7 30.6z" fill="#F4F1D0"/></g></svg>