<svg width="90" height="90" viewBox="0 0 90 90" fill="none" xmlns="http://www.w3.org/2000/svg">
<rect width="90" height="90" fill="white"/>
<g clip-path="url(#clip0_1:136)">
<path d="M45 45.5C45 42.7152 46.1062 40.0445 48.0754 38.0754C50.0445 36.1062 52.7152 35 55.5 35C58.2848 35 60.9555 36.1062 62.9246 38.0754C64.8938 40.0445 66 42.7152 66 45.5C66 48.2848 64.8938 50.9555 62.9246 52.9246C60.9555 54.8938 58.2848 56 55.5 56C52.7152 56 50.0445 54.8938 48.0754 52.9246C46.1062 50.9555 45 48.2848 45 45.5V45.5Z" fill="#1ABCFE"/>
<path d="M24 66.5C24 63.7152 25.1062 61.0445 27.0754 59.0754C29.0445 57.1062 31.7152 56 34.5 56H45V66.5C45 69.2848 43.8938 71.9555 41.9246 73.9246C39.9555 75.8938 37.2848 77 34.5 77C31.7152 77 29.0445 75.8938 27.0754 73.9246C25.1062 71.9555 24 69.2848 24 66.5V66.5Z" fill="#0ACF83"/>
<path d="M45 14V35H55.5C58.2848 35 60.9555 33.8938 62.9246 31.9246C64.8938 29.9555 66 27.2848 66 24.5C66 21.7152 64.8938 19.0445 62.9246 17.0754C60.9555 15.1062 58.2848 14 55.5 14H45Z" fill="#FF7262"/>
<path d="M24 24.5C24 27.2848 25.1062 29.9555 27.0754 31.9246C29.0445 33.8938 31.7152 35 34.5 35H45V14H34.5C31.7152 14 29.0445 15.1062 27.0754 17.0754C25.1062 19.0445 24 21.7152 24 24.5V24.5Z" fill="#F24E1E"/>
<path d="M24 45.5C24 48.2848 25.1062 50.9555 27.0754 52.9246C29.0445 54.8938 31.7152 56 34.5 56H45V35H34.5C31.7152 35 29.0445 36.1062 27.0754 38.0754C25.1062 40.0445 24 42.7152 24 45.5V45.5Z" fill="#A259FF"/>
</g>
<defs>
<clipPath id="clip0_1:136">
<rect width="42" height="63" fill="white" transform="translate(24 14)"/>
</clipPath>
</defs>
</svg>
