<?xml version="1.0" standalone="no"?>
<!DOCTYPE svg PUBLIC "-//W3C//DTD SVG 20010904//EN"
 "http://www.w3.org/TR/2001/REC-SVG-20010904/DTD/svg10.dtd">
<svg version="1.0" xmlns="http://www.w3.org/2000/svg"
 width="512.000000pt" height="512.000000pt" viewBox="0 0 512.000000 512.000000"
 preserveAspectRatio="xMidYMid meet">

<g transform="translate(0.000000,512.000000) scale(0.100000,-0.100000)"
fill="#000000" stroke="none">
<path d="M3025 4799 c-220 -16 -407 -30 -867 -64 -419 -30 -621 -45 -760 -55
-79 -5 -165 -12 -193 -15 -27 -2 -88 -7 -135 -10 -305 -21 -471 -37 -511 -50
-64 -22 -122 -74 -150 -137 l-24 -53 -3 -1435 c-2 -1044 0 -1451 8 -1495 14
-71 65 -178 123 -255 212 -286 657 -847 690 -871 83 -60 165 -68 482 -49 315
19 341 20 405 25 36 3 115 7 175 10 61 3 135 8 165 10 30 2 102 7 160 10 58 3
134 8 170 10 36 3 146 9 245 15 99 6 214 12 255 15 41 3 152 10 245 15 94 5
206 12 250 15 116 7 392 23 525 30 288 15 374 48 428 163 l27 57 3 1615 c2
1121 0 1626 -8 1652 -12 42 -71 99 -176 170 -38 26 -95 65 -126 87 -67 47
-138 97 -208 146 -27 19 -71 50 -97 68 -27 19 -79 55 -118 82 -38 27 -108 75
-154 107 -46 33 -105 74 -131 93 -168 118 -246 129 -695 94z m436 -246 c66
-12 122 -44 283 -158 337 -240 391 -283 375 -299 -4 -5 -120 -13 -424 -31 -49
-3 -124 -8 -165 -10 -41 -3 -151 -10 -245 -15 -252 -15 -342 -20 -425 -25 -41
-3 -151 -10 -245 -15 -251 -14 -341 -20 -425 -25 -41 -3 -147 -9 -235 -15 -88
-5 -216 -13 -285 -17 -69 -4 -183 -8 -255 -8 -158 0 -173 6 -330 129 -60 48
-156 123 -213 167 -82 64 -103 85 -100 102 5 33 61 54 163 61 50 3 216 15 370
26 154 11 406 29 560 40 154 11 303 22 330 25 28 2 185 14 350 26 165 11 404
29 530 39 220 17 311 18 386 3z m934 -796 c24 -24 35 -46 40 -78 3 -24 5 -656
3 -1404 -3 -1347 -3 -1360 -23 -1395 -41 -69 -88 -80 -410 -94 -77 -4 -156 -9
-175 -11 -19 -2 -98 -7 -175 -10 -77 -3 -156 -8 -175 -10 -19 -2 -93 -6 -165
-10 -71 -3 -155 -8 -185 -10 -30 -2 -104 -7 -165 -10 -60 -3 -141 -8 -180 -10
-38 -3 -113 -7 -165 -10 -52 -3 -171 -10 -265 -15 -93 -5 -217 -12 -275 -15
-58 -3 -127 -7 -155 -10 -100 -9 -342 -20 -435 -20 -109 0 -150 17 -185 75
-20 35 -20 45 -20 1420 0 1319 1 1387 18 1418 32 59 56 63 512 87 55 3 129 8
165 10 36 2 108 7 160 10 52 3 172 9 265 15 94 5 213 12 265 15 111 6 235 14
340 20 41 3 156 9 255 15 99 5 214 12 255 15 41 2 125 7 185 11 61 3 200 12
310 19 110 7 233 13 274 14 70 1 74 0 106 -32z"/>
<path d="M3870 3300 c-63 -5 -167 -11 -230 -14 -315 -17 -348 -26 -382 -103
-35 -79 -29 -86 97 -100 60 -8 113 -17 117 -21 5 -5 7 -278 6 -607 l-3 -599
-131 199 c-72 110 -272 414 -444 675 -171 261 -317 480 -323 486 -9 8 -104 5
-349 -12 -185 -12 -345 -25 -356 -28 -31 -10 -71 -45 -86 -74 -17 -32 -26 -96
-17 -111 4 -6 45 -13 91 -16 47 -4 95 -8 108 -11 l22 -4 0 -864 0 -865 -55
-15 c-30 -9 -68 -19 -84 -22 -52 -11 -91 -62 -91 -121 l0 -25 158 7 c86 4 164
8 172 10 8 1 83 6 165 9 191 9 242 19 287 56 33 28 67 94 55 107 -3 2 -62 17
-130 33 -68 15 -130 30 -136 34 -13 8 -16 1296 -3 1296 4 0 14 -12 23 -28 9
-15 57 -90 106 -167 50 -77 237 -369 417 -650 179 -280 349 -536 377 -568 28
-31 69 -67 92 -78 86 -44 228 -31 366 33 l72 33 -1 967 0 968 22 5 c13 3 46 9
73 15 75 16 101 29 114 56 12 28 15 125 4 123 -5 -1 -60 -5 -123 -9z"/>
</g>
</svg>
