<?xml version="1.0" standalone="no"?>
<!DOCTYPE svg PUBLIC "-//W3C//DTD SVG 20010904//EN"
 "http://www.w3.org/TR/2001/REC-SVG-20010904/DTD/svg10.dtd">
<svg version="1.0" xmlns="http://www.w3.org/2000/svg"
 width="1024.000000pt" height="1024.000000pt" viewBox="0 0 1024.000000 1024.000000"
 preserveAspectRatio="xMidYMid meet">

<g transform="translate(0.000000,1024.000000) scale(0.100000,-0.100000)"
fill="#000000" stroke="none">
<path d="M3695 9229 c-882 -6 -951 -9 -1170 -44 -713 -114 -1259 -606 -1434
-1290 -82 -321 -90 -559 -90 -2605 0 -2171 9 -2568 64 -2842 72 -362 234 -667
486 -915 346 -339 719 -486 1324 -523 225 -13 4225 -13 4467 0 417 23 672 83
932 218 265 138 471 322 637 570 165 246 261 524 299 867 20 176 29 648 30
1513 l0 842 -568 677 -569 677 23 21 c19 17 21 24 11 35 -10 10 -9 12 3 8 11
-4 15 2 15 22 0 18 -17 46 -52 87 -44 50 -50 63 -39 72 8 6 16 21 19 32 3 12
3 18 0 15 -3 -3 -12 6 -20 21 -11 22 -12 32 -2 50 11 20 6 29 -47 95 -44 54
-60 81 -59 103 0 18 5 29 12 28 7 -2 10 4 6 13 -3 8 -2 14 3 13 21 -4 35 2 29
11 -4 6 -11 7 -17 4 -6 -4 -5 3 2 15 6 12 13 44 15 70 3 46 2 48 -18 45 -22
-4 -22 -4 1 5 29 14 28 36 -4 75 l-27 31 29 5 29 6 -27 7 c-29 8 -36 21 -16
33 7 5 8 2 3 -7 -5 -9 -2 -8 10 2 11 11 15 24 10 38 -3 12 -9 19 -13 17 -9 -5
-26 15 -30 34 -2 8 -10 28 -17 44 -13 25 -13 27 0 16 13 -11 15 -6 15 28 0 23
-4 44 -10 47 -5 3 -7 0 -4 -8 2 -7 -1 -14 -8 -14 -8 0 -13 11 -12 26 0 16 -13
42 -35 69 -20 24 -35 48 -34 53 2 5 -4 9 -12 9 -8 0 -15 5 -15 10 0 6 -11 22
-25 36 -14 14 -25 30 -25 37 0 7 -9 19 -19 27 -11 7 -18 17 -15 22 3 5 0 7 -8
6 -7 -2 -12 3 -10 10 1 6 -1 11 -6 10 -4 -2 -25 17 -47 42 -82 93 -138 131
-192 132 -13 0 -23 3 -23 7 0 17 -50 34 -95 32 -40 -1 -55 3 -74 20 -17 16
-25 19 -31 9 -5 -9 -9 -9 -14 -1 -10 16 -29 13 -23 -4 4 -8 1 -17 -5 -21 -6
-4 -8 -3 -5 3 4 6 -3 19 -15 29 -21 19 -21 19 -8 -6 11 -21 11 -23 -1 -14 -25
20 -70 26 -87 12 -13 -11 -15 -11 -8 2 4 9 1 8 -7 -2 -8 -10 -19 -18 -26 -18
-6 0 -14 -7 -17 -15 -5 -12 -10 -13 -20 -4 -11 9 -18 8 -29 -1 -13 -10 -19 -8
-36 14 -11 14 -26 26 -34 26 -7 0 -16 6 -19 13 -3 6 -3 2 0 -10 4 -19 2 -22
-12 -16 -13 5 -15 3 -9 -7 5 -8 3 -11 -6 -8 -8 3 -13 10 -12 16 2 6 -6 16 -17
22 -11 6 -19 14 -16 18 2 4 -13 8 -34 8 -28 0 -37 -3 -33 -13 4 -10 -1 -13
-20 -9 -21 4 -25 1 -22 -16 4 -20 4 -20 -16 -2 -11 10 -17 24 -14 31 2 8 1 12
-4 8 -5 -3 -226 253 -491 568 l-481 574 -127 6 c-135 7 -474 7 -1887 -4z
m-592 -1383 c21 -10 472 -409 1003 -887 1028 -925 991 -895 1066 -870 33 11
84 56 1302 1156 329 297 617 554 640 572 181 139 473 -5 525 -259 14 -64 8
-111 -22 -182 -19 -44 -115 -134 -961 -895 -1125 -1011 -1026 -924 -1107 -972
-280 -163 -663 -141 -911 52 -56 44 -1823 1632 -1911 1718 -102 99 -127 187
-91 312 37 127 131 223 259 266 54 17 161 12 208 -11z m4887 -776 c0 -5 -5
-10 -11 -10 -5 0 -7 5 -4 10 3 6 8 10 11 10 2 0 4 -4 4 -10z m-2640 -2165 c80
-21 192 -72 257 -116 26 -18 284 -231 573 -473 289 -242 737 -618 995 -834
259 -217 491 -415 517 -440 67 -65 91 -126 86 -221 -2 -62 -9 -89 -36 -143
-73 -148 -238 -240 -376 -209 -30 7 -71 23 -91 37 -20 13 -260 212 -533 441
-467 392 -1266 1062 -1450 1216 -68 58 -90 70 -127 74 -24 3 -55 3 -69 -1 -26
-6 -193 -145 -1621 -1345 -231 -195 -440 -366 -463 -382 -61 -39 -126 -51
-199 -38 -232 43 -378 319 -271 511 17 30 296 270 1061 912 570 479 1069 891
1108 914 82 50 167 84 265 106 87 20 282 15 374 -9z"/>
<path d="M6785 8100 c3 -5 8 -10 11 -10 2 0 4 5 4 10 0 6 -5 10 -11 10 -5 0
-7 -4 -4 -10z"/>
<path d="M8000 6859 c0 -5 5 -7 10 -4 6 3 10 8 10 11 0 2 -4 4 -10 4 -5 0 -10
-5 -10 -11z"/>
<path d="M8128 6373 c7 -3 16 -2 19 1 4 3 -2 6 -13 5 -11 0 -14 -3 -6 -6z"/>
</g>
</svg>
