<svg width="300" height="300" viewBox="0 0 300 300" fill="none" xmlns="http://www.w3.org/2000/svg">
<circle cx="150" cy="150" r="150" fill="#93C5FD"/>
<circle cx="150" cy="150" r="100" fill="#3B82F6"/>
<circle cx="150" cy="150" r="50" fill="#1D4ED8"/>
<g filter="url(#filter0_d_992_64)">
<path d="M242.257 241.257L170.589 169.589M180.827 56.9689H242.257H180.827ZM242.257 56.9689V118.398V56.9689ZM242.257 56.9689L170.589 128.636L242.257 56.9689ZM119.398 241.257H57.9688H119.398ZM57.9688 241.257V179.827V241.257ZM57.9688 241.257L129.636 169.589L57.9688 241.257ZM57.9688 118.398V56.9689V118.398ZM57.9688 56.9689H119.398H57.9688ZM57.9688 56.9689L129.636 128.636L57.9688 56.9689ZM242.257 179.827V241.257V179.827ZM242.257 241.257H180.827H242.257Z" stroke="white" stroke-width="10" stroke-linecap="round" stroke-linejoin="round"/>
</g>
<defs>
<filter id="filter0_d_992_64" x="31" y="34" width="239" height="239" filterUnits="userSpaceOnUse" color-interpolation-filters="sRGB">
<feFlood flood-opacity="0" result="BackgroundImageFix"/>
<feColorMatrix in="SourceAlpha" type="matrix" values="0 0 0 0 0 0 0 0 0 0 0 0 0 0 0 0 0 0 127 0" result="hardAlpha"/>
<feOffset dy="4"/>
<feGaussianBlur stdDeviation="10"/>
<feColorMatrix type="matrix" values="0 0 0 0 0 0 0 0 0 0 0 0 0 0 0 0 0 0 0.25 0"/>
<feBlend mode="normal" in2="BackgroundImageFix" result="effect1_dropShadow_992_64"/>
<feBlend mode="normal" in="SourceGraphic" in2="effect1_dropShadow_992_64" result="shape"/>
</filter>
</defs>
</svg>
