<svg width="114" height="115" viewBox="0 0 114 115" fill="none" xmlns="http://www.w3.org/2000/svg">
<path d="M111.78 51.977L62.035 2.2381C59.1728 -0.6267 54.5268 -0.6267 51.661 2.2381L41.332 12.5681L54.434 25.6701C57.4799 24.6417 60.9711 25.3312 63.3979 27.7585C65.8373 30.2009 66.5219 33.7219 65.4677 36.778L78.0957 49.406C81.1508 48.3532 84.6757 49.0334 87.1152 51.4772C90.5258 54.8868 90.5258 60.4117 87.1152 63.8222C83.7041 67.2338 78.1792 67.2338 74.7662 63.8222C72.2017 61.2557 71.5674 57.4877 72.8663 54.328L61.0893 42.551L61.0883 73.542C61.9198 73.9536 62.7045 74.503 63.3974 75.1929C66.807 78.6021 66.807 84.126 63.3974 87.5409C59.9868 90.95 54.4594 90.95 51.0524 87.5409C47.6423 84.1263 47.6423 78.6024 51.0524 75.1929C51.8951 74.3517 52.8703 73.7149 53.9108 73.2881V42.0091C52.8698 41.5841 51.8958 40.9521 51.0518 40.1041C48.4688 37.5231 47.8467 33.7321 49.1714 30.5602L36.2554 17.6422L2.1494 51.7472C-0.716303 54.6142 -0.716303 59.2602 2.1494 62.1252L51.8914 111.864C54.7552 114.729 59.3996 114.729 62.2674 111.864L111.779 62.3602C114.644 59.494 114.644 54.8466 111.779 51.9812" fill="#F05133"/>
</svg>
