<?xml version="1.0" standalone="no"?>
<!DOCTYPE svg PUBLIC "-//W3C//DTD SVG 20010904//EN"
 "http://www.w3.org/TR/2001/REC-SVG-20010904/DTD/svg10.dtd">
<svg version="1.0" xmlns="http://www.w3.org/2000/svg"
 width="400.000000pt" height="400.000000pt" viewBox="0 0 400.000000 400.000000"
 preserveAspectRatio="xMidYMid meet">

<g transform="translate(0.000000,400.000000) scale(0.100000,-0.100000)"
fill="#000000" stroke="none">
<path d="M2814 2622 c-7 -4 -35 -79 -64 -167 -28 -88 -69 -212 -90 -275 -21
-63 -78 -236 -125 -385 -48 -148 -95 -292 -105 -320 -61 -169 -81 -246 -69
-261 7 -8 21 -14 32 -12 23 4 17 -14 182 493 69 215 139 428 155 475 96 284
139 434 129 447 -13 14 -28 16 -45 5z"/>
<path d="M500 1985 l0 -506 88 3 87 3 5 317 5 317 47 -102 c26 -56 88 -194
139 -307 50 -113 96 -211 102 -218 7 -9 35 -12 96 -10 l86 3 3 503 2 502 -90
0 -90 0 -1 -292 0 -293 -20 40 c-33 69 -105 227 -139 305 -18 41 -50 112 -71
158 l-40 82 -104 0 -105 0 0 -505z"/>
<path d="M1490 1990 l0 -500 85 0 85 0 0 322 c0 211 3 319 10 312 9 -9 262
-552 282 -606 10 -28 11 -28 104 -28 l94 0 0 500 0 500 -85 0 -85 0 0 -297 c0
-177 -4 -293 -9 -287 -11 11 -261 562 -261 575 0 5 -49 9 -110 9 l-110 0 0
-500z"/>
<path d="M3115 2194 c-89 -21 -160 -67 -190 -125 -22 -40 -28 -119 -15 -169
13 -47 86 -130 115 -130 28 0 15 -17 -26 -35 -85 -39 -93 -142 -14 -180 24
-11 65 -15 150 -15 162 0 204 -23 205 -111 0 -83 -72 -127 -192 -116 -113 10
-172 63 -150 134 l10 34 -56 -3 -56 -3 -9 -43 c-13 -67 21 -128 93 -167 54
-29 58 -30 195 -30 136 0 141 1 187 28 61 36 89 82 95 156 8 83 -19 140 -83
177 -45 27 -59 29 -178 34 -107 4 -131 8 -140 22 -22 36 42 73 168 97 34 6 73
21 93 37 77 59 112 168 79 248 -9 21 -16 40 -16 41 0 1 24 5 53 7 29 2 64 12
77 21 l23 16 -32 31 c-23 23 -36 30 -49 24 -34 -16 -142 -16 -180 -1 -41 16
-127 28 -157 21z m103 -105 c68 -24 86 -173 28 -232 -45 -44 -158 -38 -196 10
-49 62 -29 191 34 219 38 16 92 18 134 3z"/>
</g>
</svg>
