<svg width="100" height="100" viewBox="0 0 100 100" fill="none" xmlns="http://www.w3.org/2000/svg">
<path fill-rule="evenodd" clip-rule="evenodd" d="M51.5 26C41.7667 26 35.6833 30.9091 33.25 40.7273C36.9 35.8182 41.1583 33.9773 46.025 35.2045C48.8017 35.9041 50.7862 37.9373 52.983 40.1859C56.5613 43.85 60.7034 48.0909 69.75 48.0909C79.4833 48.0909 85.5667 43.1818 88 33.3636C84.35 38.2727 80.0917 40.1136 75.225 38.8864C72.4483 38.1868 70.4638 36.1536 68.267 33.905C64.6887 30.2409 60.5466 26 51.5 26ZM33.25 48.0909C23.5167 48.0909 17.4333 53 15 62.8182C18.65 57.9091 22.9083 56.0682 27.775 57.2955C30.5517 57.9964 32.5362 60.0282 34.733 62.2768C38.3113 65.9409 42.4534 70.1818 51.5 70.1818C61.2333 70.1818 67.3167 65.2727 69.75 55.4545C66.1 60.3636 61.8417 62.2045 56.975 60.9773C54.1983 60.2777 52.2138 58.2445 50.017 55.9959C46.4387 52.3318 42.2966 48.0909 33.25 48.0909Z" fill="#06B6D4"/>
</svg>
