<?xml version="1.0" standalone="no"?>
<!DOCTYPE svg PUBLIC "-//W3C//DTD SVG 20010904//EN"
 "http://www.w3.org/TR/2001/REC-SVG-20010904/DTD/svg10.dtd">
<svg version="1.0" xmlns="http://www.w3.org/2000/svg"
 width="560.000000pt" height="560.000000pt" viewBox="0 0 560.000000 560.000000"
 preserveAspectRatio="xMidYMid meet">

<g transform="translate(0.000000,560.000000) scale(0.100000,-0.100000)"
fill="#000000" stroke="none">
<path d="M0 2800 l0 -2800 2800 0 2800 0 0 2800 0 2800 -2800 0 -2800 0 0
-2800z m2808 92 c5 -1 287 276 627 617 340 341 622 618 627 615 10 -7 9 -2381
-1 -2452 l-6 -42 -305 305 c-168 168 -308 304 -312 302 -4 -1 -144 -138 -311
-304 -167 -167 -309 -303 -317 -303 -7 0 -150 136 -317 302 -167 167 -306 305
-308 307 -2 2 -143 -134 -312 -302 -169 -168 -311 -303 -315 -301 -10 6 -11
2478 -1 2488 4 4 285 -271 625 -611 340 -340 621 -619 626 -621z"/>
</g>
</svg>
